# Wavefront OBJ file
# Creator: Ultimate Unwrap3D Pro v3.19
# Website: http://www.unwrap3d.com
# Time: Tue Nov 17 15:46:16 2009
# num_vertices: 76
# num_vertex_normals: 76
# num_uvs: 257
# num_faces: 64
# num_groups: 1

mtllib church.mtl

v -179.181854 244.536392 -0.000107
v -7.777832 0.000000 -7.095406
v -179.181854 0.000000 -0.000107
v -179.181854 244.536392 202.655502
v -7.777832 244.536392 202.655502
v -7.777832 0.000000 202.655502
v -179.181854 0.000000 202.655502
v 150.018158 0.000000 -0.000107
v 150.018158 244.536392 202.655502
v 150.018158 0.000000 202.655502
v 301.871124 0.000000 -0.000107
v 301.871124 244.536392 202.655502
v 301.871124 0.000000 202.655502
v 448.160126 244.536392 -0.000107
v 448.160126 0.000000 -0.000107
v 448.160126 244.536392 202.655502
v 448.160126 0.000000 202.655502
v -179.181854 363.026398 -0.000107
v -7.777832 363.027405 -0.000107
v 150.018158 363.027405 -0.000107
v 301.871124 363.027405 -0.000107
v 448.160126 363.027405 -0.000107
v -7.777832 0.000000 -0.000107
v -179.181854 244.536392 -202.655502
v -7.777832 244.536392 -202.655502
v -7.777832 0.000000 -202.655502
v -179.181854 0.000000 -202.655502
v 150.018158 244.536392 -202.655502
v 150.018158 0.000000 -202.655502
v 301.871124 244.536392 -202.655502
v 301.871124 0.000000 -202.655502
v 448.160126 244.536392 -0.000107
v 448.160126 244.536392 -202.655502
v 448.160126 0.000000 -202.655502
v -426.869354 2.601501 -3.090706
v -426.869354 2.601501 127.078491
v -426.869354 710.874390 127.078491
v -426.869354 710.874390 -3.090706
v -303.339844 2.601501 127.078491
v -303.339844 710.874390 127.078491
v -179.809845 2.601501 -3.090706
v -179.809845 2.601501 127.078491
v -179.809845 710.874390 127.078491
v -179.809845 710.874390 -2.330109
v -426.869354 2.601501 -132.498001
v -426.869354 710.874390 -132.498001
v -303.339844 2.601501 -132.498001
v -303.339844 710.874390 -132.498001
v -179.809845 2.601501 -132.498001
v -179.809845 710.874390 -132.498001
v -408.295532 710.874390 108.504486
v -303.339844 710.874390 108.504486
v -198.383850 710.874390 108.504486
v -198.383850 710.874390 -2.330109
v -198.383850 710.874390 -113.924210
v -303.339844 710.874390 -113.924210
v -408.295532 710.874390 -113.924210
v -408.295532 710.874390 -3.090706
v -303.339844 679.553406 108.504486
v -408.295532 679.553406 108.504486
v -408.295532 679.553406 -3.090706
v -198.383850 679.553406 108.504486
v -198.383850 679.553406 -2.330109
v -198.383850 679.553406 -113.924210
v -303.339844 679.553406 -113.924210
v -408.295532 679.553406 -113.924210
v -426.869354 2.601501 90.300491
v -426.869354 710.874390 90.300491
v -424.158447 179.664398 -70.042755
v -424.158447 179.664398 61.531494
v -424.158447 8.394409 61.531494
v -424.158447 8.394409 -70.042755
v -448.160156 179.664398 -70.042755
v -448.160156 179.664398 61.531494
v -448.160156 8.394409 61.531494
v -448.160156 8.394409 -70.042755
# num_vertices: 76

vn -1.000000 0.000000 0.000000
vn 0.000000 -1.000000 0.000000
vn -0.707107 -0.707107 0.000000
vn -0.755417 0.326065 0.568354
vn 0.000000 0.497622 0.867394
vn 0.000000 -0.707107 0.707107
vn -0.577350 -0.577350 0.577350
vn 0.000000 -1.000000 0.000000
vn 0.000000 0.497622 0.867394
vn 0.000000 -0.707107 0.707107
vn 0.000000 -1.000000 0.000000
vn 0.000000 0.497622 0.867394
vn 0.000000 -0.707107 0.707107
vn 1.000000 0.000000 0.000000
vn 0.707107 -0.707107 0.000000
vn 0.755417 0.326064 0.568355
vn 0.577350 -0.577350 0.577350
vn -0.756961 0.653460 -0.000000
vn -0.000001 1.000000 -0.000000
vn 0.000000 1.000000 -0.000000
vn 0.000000 1.000000 -0.000000
vn 0.756961 0.653460 -0.000000
vn 0.000000 -1.000000 0.000000
vn -0.755418 0.326064 -0.568354
vn -0.000001 0.497622 -0.867394
vn 0.000000 -0.707107 -0.707107
vn -0.577350 -0.577350 -0.577350
vn 0.000000 0.497621 -0.867394
vn 0.000000 -0.707107 -0.707107
vn 0.000000 0.497621 -0.867394
vn 0.000000 -0.707107 -0.707107
vn 1.000000 0.000000 0.000000
vn 0.755417 0.326064 -0.568355
vn 0.577350 -0.577350 -0.577350
vn -1.000000 0.000000 0.000000
vn -0.707107 0.000000 0.707107
vn -0.408248 0.816497 0.408248
vn -0.707107 0.707107 0.000000
vn 0.000000 0.000000 1.000000
vn 0.000000 0.707107 0.707107
vn 1.000000 0.000000 0.000000
vn 0.707107 0.000000 0.707107
vn 0.408248 0.816497 0.408248
vn 0.707107 0.707107 0.000000
vn -0.707107 0.000000 -0.707107
vn -0.408248 0.816497 -0.408248
vn 0.000000 0.000000 -1.000000
vn 0.000000 0.707107 -0.707107
vn 0.707107 0.000000 -0.707107
vn 0.408248 0.816497 -0.408248
vn 0.408248 0.816497 -0.408248
vn 0.000000 0.707107 -0.707107
vn -0.408248 0.816497 -0.408248
vn -0.707107 0.707107 0.000000
vn -0.408248 0.816497 0.408248
vn 0.000000 0.707107 0.707107
vn 0.408248 0.816497 0.408248
vn 0.707107 0.707107 0.000000
vn 0.000000 0.447214 -0.894427
vn 0.577350 0.577350 -0.577350
vn 0.894427 0.447214 0.000000
vn -0.577350 0.577350 -0.577350
vn -0.894427 0.447214 0.000000
vn -0.577350 0.577350 0.577350
vn 0.000000 0.447214 0.894427
vn 0.577350 0.577350 0.577350
vn -1.000000 0.000000 0.000000
vn -0.894427 0.447214 0.000000
vn 0.577350 0.577350 -0.577350
vn 0.577350 0.577350 0.577350
vn 0.577350 -0.577350 0.577350
vn 0.577350 -0.577350 -0.577350
vn -0.577350 0.577350 -0.577350
vn -0.577350 0.577350 0.577350
vn -0.577350 -0.577350 0.577350
vn -0.577350 -0.577350 -0.577350
# num_vertex_normals: 76

vt 0.008450 0.981319
vt 0.179012 0.981319
vt 0.179012 0.621320
vt 0.008450 0.621320
vt 0.003986 1.110610
vt 0.003986 1.110610
vt 0.003986 1.110610
vt 0.003986 1.110610
vt 0.008450 0.621320
vt 0.179012 0.621320
vt 0.179012 0.981319
vt 0.008450 0.981319
vt 0.189532 0.610466
vt 0.189961 0.976257
vt 0.007158 0.975430
vt 0.007158 0.609623
vt 0.003986 1.110610
vt 0.003986 1.110610
vt 0.003986 1.110610
vt 0.003986 1.110610
vt 0.005263 0.975430
vt 0.005263 0.609623
vt 0.190240 0.610466
vt 0.190197 0.976257
vt 0.003986 1.110610
vt 0.003986 1.110610
vt 0.003986 1.110610
vt 0.003986 1.110610
vt 0.002965 0.975430
vt 0.002965 0.609622
vt 0.190593 0.610466
vt 0.190315 0.976257
vt 0.003986 1.110610
vt 0.003986 1.110610
vt 0.003986 1.110610
vt 0.003986 1.110610
vt 0.004295 0.977067
vt 0.004295 0.611260
vt 0.190819 0.610417
vt 0.190390 0.976240
vt 0.248259 0.921372
vt 0.376259 0.921372
vt 0.248259 0.996212
vt 0.430031 0.755003
vt 0.681591 0.755003
vt 0.682543 0.991101
vt 0.430031 0.991098
vt 0.429773 0.755003
vt 0.681810 0.755003
vt 0.681788 0.991101
vt 0.429773 0.991101
vt 0.432388 0.755003
vt 0.681879 0.755003
vt 0.681552 0.991101
vt 0.432388 0.991101
vt 0.427168 0.755003
vt 0.682020 0.755003
vt 0.681068 0.991101
vt 0.427168 0.991101
vt 0.376259 0.921372
vt 0.248259 0.921372
vt 0.248259 0.996212
vt 0.008450 0.621320
vt 0.179012 0.621320
vt 0.179012 0.981319
vt 0.008450 0.981319
vt 0.003986 1.110610
vt 0.003986 1.110610
vt 0.003986 1.110610
vt 0.003986 1.110610
vt 0.008450 0.981319
vt 0.179012 0.981319
vt 0.179012 0.621320
vt 0.008450 0.621320
vt 0.007158 0.609623
vt 0.007158 0.975430
vt 0.189961 0.976257
vt 0.189532 0.610466
vt 0.003986 1.110610
vt 0.003986 1.110610
vt 0.003986 1.110610
vt 0.003986 1.110610
vt 0.190197 0.976257
vt 0.190240 0.610466
vt 0.005263 0.609623
vt 0.005263 0.975430
vt 0.003986 1.110610
vt 0.003986 1.110610
vt 0.003986 1.110610
vt 0.003986 1.110610
vt 0.190315 0.976257
vt 0.190593 0.610466
vt 0.002965 0.609622
vt 0.002965 0.975430
vt 0.003986 1.110610
vt 0.003986 1.110610
vt 0.003986 1.110610
vt 0.003986 1.110610
vt 0.190390 0.976240
vt 0.190819 0.610417
vt 0.004295 0.611260
vt 0.004295 0.977067
vt 0.247626 0.996212
vt 0.375626 0.921372
vt 0.247626 0.921372
vt 0.430031 0.991098
vt 0.682543 0.991101
vt 0.681591 0.755003
vt 0.430031 0.755003
vt 0.429773 0.991101
vt 0.681788 0.991101
vt 0.681810 0.755003
vt 0.429773 0.755003
vt 0.432388 0.991101
vt 0.681552 0.991101
vt 0.681879 0.755003
vt 0.432388 0.755003
vt 0.427168 0.991101
vt 0.681068 0.991101
vt 0.682020 0.755003
vt 0.427168 0.755003
vt 0.247626 0.996212
vt 0.247626 0.921372
vt 0.375626 0.921372
vt 0.137982 0.007426
vt 0.137982 0.556126
vt 0.047550 0.556126
vt 0.047550 0.007426
vt 0.137706 0.556126
vt 0.048443 0.556126
vt 0.048443 0.007426
vt 0.137706 0.007426
vt 0.047550 0.007426
vt 0.047550 0.556126
vt 0.137982 0.556126
vt 0.137982 0.007426
vt 0.137706 0.556126
vt 0.048443 0.556126
vt 0.048443 0.007426
vt 0.137706 0.007426
vt 0.047550 0.007426
vt 0.047550 0.556126
vt 0.137982 0.556126
vt 0.137982 0.007426
vt 0.137706 0.007426
vt 0.048443 0.007426
vt 0.048443 0.556126
vt 0.137706 0.556126
vt 0.137982 0.007426
vt 0.137982 0.556126
vt 0.047550 0.556126
vt 0.047550 0.007426
vt 0.768171 0.893069
vt 0.752331 0.861796
vt 0.857676 0.861796
vt 0.857676 0.893069
vt 0.857676 0.893069
vt 0.857676 0.861796
vt 0.963022 0.861796
vt 0.947182 0.893069
vt 0.758263 0.906614
vt 0.742423 0.875341
vt 0.852782 0.875341
vt 0.852782 0.906614
vt 0.852782 0.906614
vt 0.852782 0.875341
vt 0.963788 0.875341
vt 0.947949 0.906614
vt 0.947182 0.867537
vt 0.963022 0.898810
vt 0.857676 0.898810
vt 0.857676 0.867537
vt 0.857676 0.867537
vt 0.857676 0.898810
vt 0.752331 0.898810
vt 0.768171 0.867537
vt 0.947949 0.860008
vt 0.963788 0.891281
vt 0.853431 0.891281
vt 0.853431 0.860008
vt 0.742562 0.800138
vt 0.857313 0.800138
vt 0.972064 0.800138
vt 0.972064 0.892234
vt 0.972064 0.984960
vt 0.857313 0.984960
vt 0.742562 0.984960
vt 0.742562 0.892866
vt 0.942826 0.952773
vt 0.841845 0.952773
vt 0.841845 0.891819
vt 0.942826 0.891819
vt 0.844179 0.959135
vt 0.736811 0.959135
vt 0.736811 0.898181
vt 0.844179 0.898181
vt 0.841845 0.952773
vt 0.740864 0.952773
vt 0.740864 0.891819
vt 0.841845 0.891819
vt 0.950815 0.952773
vt 0.844178 0.952773
vt 0.844178 0.891819
vt 0.950815 0.891819
vt 0.844178 0.952773
vt 0.736811 0.952773
vt 0.736811 0.891819
vt 0.844178 0.891819
vt 0.942826 0.959135
vt 0.841844 0.959135
vt 0.841844 0.898181
vt 0.942826 0.898181
vt 0.841844 0.959135
vt 0.740864 0.959135
vt 0.740864 0.898181
vt 0.841844 0.898181
vt 0.950815 0.959135
vt 0.844179 0.959135
vt 0.844179 0.898181
vt 0.950815 0.898181
vt 0.137706 0.007426
vt 0.073663 0.007426
vt 0.073663 0.556126
vt 0.137706 0.556126
vt 0.073663 0.007426
vt 0.048443 0.007426
vt 0.048443 0.556126
vt 0.073663 0.556126
vt 0.853431 0.860008
vt 0.853431 0.891281
vt 0.773787 0.891281
vt 0.742423 0.891281
vt 0.758263 0.860008
vt 0.169038 0.944752
vt 0.139158 0.944752
vt 0.139158 0.764152
vt 0.169038 0.764152
vt 0.135383 0.948251
vt 0.171259 0.948251
vt 0.171259 0.692251
vt 0.135383 0.692251
vt 0.169038 0.764152
vt 0.139158 0.764152
vt 0.139158 0.944752
vt 0.169038 0.944752
vt 0.135383 0.692251
vt 0.171259 0.692251
vt 0.171259 0.948251
vt 0.135383 0.948251
vt 0.003468 0.981319
vt 0.003468 0.981319
vt 0.003468 0.981319
vt 0.003468 0.981319
vt 0.201561 0.728888
vt 0.201561 0.998216
vt 0.393618 0.998216
vt 0.393618 0.728888
# num_uvs: 257

g church
s 1

usemtl texturesheet_B
f 14/1/14 16/2/16 17/3/17 15/4/15 
f 2/5/2 6/6/6 7/7/7 3/8/3 
f 3/9/3 7/10/7 4/11/4 1/12/1 
f 6/13/6 5/14/5 4/15/4 7/16/7 
f 6/17/6 2/18/2 8/19/8 10/20/10 
f 5/21/5 6/22/6 10/23/10 9/24/9 
f 10/25/10 8/26/8 11/27/11 13/28/13 
f 9/29/9 10/30/10 13/31/13 12/32/12 
f 13/33/13 11/34/11 15/35/15 17/36/17 
f 12/37/12 13/38/13 17/39/17 16/40/16 
f 1/41/1 4/42/4 18/43/18 
f 4/44/4 5/45/5 19/46/19 18/47/18 
f 5/48/5 9/49/9 20/50/20 19/51/19 
f 9/52/9 12/53/12 21/54/21 20/55/20 
f 12/56/12 16/57/16 22/58/22 21/59/21 
f 16/60/16 14/61/14 22/62/22 
f 15/63/15 34/64/34 33/65/33 32/66/32 
f 3/67/3 27/68/27 26/69/26 23/70/23 
f 1/71/1 24/72/24 27/73/27 3/74/3 
f 27/75/27 24/76/24 25/77/25 26/78/26 
f 29/79/29 8/80/8 23/81/23 26/82/26 
f 28/83/28 29/84/29 26/85/26 25/86/25 
f 31/87/31 11/88/11 8/89/8 29/90/29 
f 30/91/30 31/92/31 29/93/29 28/94/28 
f 34/95/34 15/96/15 11/97/11 31/98/31 
f 33/99/33 34/100/34 31/101/31 30/102/30 
f 18/103/18 24/104/24 1/105/1 
f 18/106/18 19/107/19 25/108/25 24/109/24 
f 19/110/19 20/111/20 28/112/28 25/113/25 
f 20/114/20 21/115/21 30/116/30 28/117/28 
f 21/118/21 22/119/22 33/120/33 30/121/30 
f 22/122/22 32/123/32 33/124/33 
f 39/125/39 40/126/40 37/127/37 36/128/36 
f 44/129/44 43/130/43 42/131/42 41/132/41 
f 42/133/42 43/134/43 40/135/40 39/136/39 
f 38/137/38 46/138/46 45/139/45 35/140/35 
f 45/141/45 46/142/46 48/143/48 47/144/47 
f 41/145/41 49/146/49 50/147/50 44/148/44 
f 47/149/47 48/150/48 50/151/50 49/152/49 
f 51/153/51 37/154/37 40/155/40 52/156/52 
f 52/157/52 40/158/40 43/159/43 53/160/53 
f 53/161/53 43/162/43 44/163/44 54/164/54 
f 54/165/54 44/166/44 50/167/50 55/168/55 
f 55/169/55 50/170/50 48/171/48 56/172/56 
f 56/173/56 48/174/48 46/175/46 57/176/57 
f 57/177/57 46/178/46 38/179/38 58/180/58 
f 60/181/60 59/182/59 62/183/62 63/184/63 64/185/64 65/186/65 66/187/66 61/188/61 
f 51/189/51 52/190/52 59/191/59 60/192/60 
f 58/193/58 51/194/51 60/195/60 61/196/61 
f 52/197/52 53/198/53 62/199/62 59/200/59 
f 53/201/53 54/202/54 63/203/63 62/204/62 
f 54/205/54 55/206/55 64/207/64 63/208/63 
f 55/209/55 56/210/56 65/211/65 64/212/64 
f 56/213/56 57/214/57 66/215/66 65/216/65 
f 57/217/57 58/218/58 61/219/61 66/220/66 
f 35/221/35 67/222/67 68/223/68 38/224/38 
f 67/225/67 36/226/36 37/227/37 68/228/68 
f 58/229/58 38/230/38 68/231/68 37/232/37 51/233/51 
f 69/234/69 73/235/73 74/236/74 70/237/70 
f 70/238/70 74/239/74 75/240/75 71/241/71 
f 71/242/71 75/243/75 76/244/76 72/245/72 
f 72/246/72 76/247/76 73/248/73 69/249/69 
f 72/250/72 69/251/69 70/252/70 71/253/71 
f 75/254/75 74/255/74 73/256/73 76/257/76 
# num_faces: 64

