# Wavefront OBJ file
# Creator: Ultimate Unwrap3D Pro v3.19
# Website: http://www.unwrap3d.com
# Time: Mon Nov 16 21:36:41 2009
# num_vertices: 126
# num_vertex_normals: 126
# num_uvs: 474
# num_faces: 115
# num_groups: 2

mtllib med_house_6.mtl

v -226.792023 108.530113 -196.395996
v -97.571014 108.530113 -196.395996
v -97.571014 0.000015 -196.395996
v -226.792023 0.000015 -196.395996
v -226.792023 108.530113 35.588898
v -97.571014 108.530113 35.588898
v -97.571014 0.000015 35.588898
v -226.792023 0.000015 35.588898
v 25.534973 108.530113 -196.395996
v 25.534973 0.000015 -196.395996
v 25.534973 108.530113 35.588898
v 25.534973 0.000015 35.588898
v 126.350983 108.530113 -196.395996
v 126.350983 0.000015 -196.395996
v 96.217987 108.530113 35.588898
v 96.217987 0.000015 35.588898
v 233.669952 108.530113 -196.395996
v 233.669952 0.000015 -196.395996
v 233.669952 108.530113 35.588898
v 233.669952 0.000015 35.588898
v 96.217987 0.000015 181.427002
v 96.217987 108.530113 181.427002
v 233.669952 108.530113 181.427002
v 233.669952 0.000015 181.427002
v -226.792023 214.916107 -82.113701
v -96.974030 223.467102 -82.638000
v 26.131989 219.973114 -82.638000
v 165.806000 216.367126 -82.638000
v 165.208954 214.916107 181.427002
v -226.792023 160.393127 -134.261108
v -226.792023 161.061127 -28.951700
v -96.974030 169.611115 -29.475901
v 26.131989 169.611115 -29.475901
v 136.308990 173.028107 -32.844803
v 127.970978 151.234100 181.427002
v 202.191010 151.139099 181.427002
v 195.079010 172.981110 -26.781101
v 198.647980 172.432129 -131.445801
v 132.741974 172.481110 -131.399200
v 26.131989 168.944122 -134.785400
v -96.974030 168.944122 -134.785400
v 96.217987 108.530113 51.122002
v 133.269989 167.827118 51.090996
v 165.806000 218.707123 50.598000
v 197.970978 167.995117 51.123001
v 233.669952 108.530113 51.122002
v -226.195023 117.081116 -196.920990
v -96.974030 117.081116 -196.920990
v -226.195023 168.944122 -134.785400
v 26.131989 117.081116 -196.920990
v -93.880005 103.105911 43.799698
v -227.651016 106.910011 48.448997
v -226.195023 169.611115 -29.475901
v 15.895996 103.105911 43.799698
v 126.948975 117.081116 -196.920990
v 78.925995 103.105911 43.799698
v 234.266998 117.081116 -196.920990
v 78.925995 103.105911 57.651001
v 234.266998 117.081116 35.064697
v 234.266998 117.081116 50.598000
v 128.567993 159.785126 180.902985
v 78.925995 103.105911 173.846008
v 234.266998 117.081116 180.902985
v 202.788971 159.690125 180.902985
v -226.195023 223.467102 -82.638000
v 165.806000 223.467102 180.902985
v 127.825989 152.194122 196.920990
v 96.072968 109.490211 196.920990
v 85.432983 106.334717 196.221008
v 233.524994 109.490211 196.920990
v 202.045990 152.099121 196.920990
v 234.121979 118.041115 196.397003
v 165.062958 215.876129 196.920990
v 128.422974 160.745117 196.397003
v 165.660004 224.427124 196.397003
v 202.642975 160.650116 196.397003
v -234.212021 160.479126 -134.257904
v -234.212021 108.615814 -196.393005
v -233.615021 117.166115 -196.916992
v -234.212021 108.615814 35.592102
v -234.212021 161.146118 -28.948400
v -234.267014 106.986511 48.451996
v -234.212021 215.002106 -82.110504
v -233.615021 169.030121 -134.782196
v -233.615021 225.458099 -82.634399
v -233.615021 169.697113 -29.472601
v 83.612976 108.530113 35.588898
v 83.612976 0.000015 35.588898
v 40.061981 108.530113 35.588898
v 40.061981 0.000015 35.588898
v 80.933990 2.973831 35.588898
v 42.740967 2.973831 35.588898
v 80.933990 85.827011 35.588898
v 42.740967 85.827011 35.588898
v 80.933990 2.973831 30.080200
v 42.740967 2.973831 30.080200
v 80.933990 85.827011 30.080200
v 42.740967 85.827011 30.080200
v 83.612976 0.000015 42.534698
v 40.061981 0.000015 42.534698
v 80.933990 2.973831 42.534698
v 42.740967 2.973831 42.534698
v -226.792023 108.530113 -81.174202
v -226.792023 0.000015 -81.174202
v 163.033966 108.530113 181.427002
v 163.033966 0.000015 181.427002
v 233.669952 108.530113 105.773994
v 233.669952 0.000015 105.773994
v 233.669952 108.530113 -87.599899
v 233.669952 0.000015 -87.599899
v -119.178024 240.663116 -86.937202
v -119.178024 240.663116 -62.345093
v -119.178024 201.488129 -62.345093
v -119.178024 201.488129 -86.937202
v -143.770020 240.663116 -86.937202
v -143.770020 240.663116 -62.345093
v -143.770020 201.488129 -62.345093
v -143.770020 201.488129 -86.937202
v -124.843018 251.726105 -81.271599
v -124.843018 251.726105 -68.010803
v -138.104019 251.726105 -81.271599
v -138.104019 251.726105 -68.010803
v -124.843018 273.609131 -81.271599
v -124.843018 273.609131 -68.010803
v -138.104019 273.609131 -81.271599
v -138.104019 273.609131 -68.010803
# num_vertices: 126

vn -0.623824 -0.276290 -0.731100
vn 0.000000 -0.030655 -0.999530
vn 0.000000 -0.707107 -0.707107
vn -0.577350 -0.577350 -0.577350
vn -0.590422 -0.806357 0.034490
vn 0.000000 -0.809700 0.586844
vn 0.000000 -0.707107 0.707107
vn -0.577350 -0.577350 0.577350
vn 0.000000 -0.030655 -0.999530
vn 0.000000 -0.707107 -0.707107
vn 0.000000 -0.880682 0.473708
vn 0.000000 -0.707107 0.707107
vn 0.000000 -0.030655 -0.999530
vn 0.000000 -0.707107 -0.707107
vn -0.355211 -0.906677 0.227514
vn -0.301511 -0.904534 0.301511
vn 0.706252 -0.046292 -0.706446
vn 0.577350 -0.577350 -0.577350
vn 0.999393 -0.034847 0.000000
vn 0.707107 -0.707107 0.000000
vn -0.577350 -0.577350 0.577350
vn 0.114200 -0.761505 0.638019
vn 0.710494 -0.237494 0.662416
vn 0.577350 -0.577350 0.577350
vn -0.589137 -0.808008 0.006382
vn 0.000000 0.999866 -0.016343
vn -0.001690 0.999625 -0.027339
vn 0.196235 0.965438 -0.171524
vn -0.001556 -0.687582 0.726105
vn -0.710537 -0.514092 0.480465
vn -0.710733 -0.520657 -0.473047
vn 0.010988 0.737493 0.675266
vn -0.000846 0.740647 0.671894
vn -0.477788 0.787660 0.388986
vn 0.576877 -0.381459 0.722289
vn -0.582901 -0.382631 0.716812
vn 0.818185 0.574906 0.007539
vn 0.483230 0.787857 -0.381797
vn -0.000355 0.746656 -0.665210
vn -0.000375 0.735151 -0.677903
vn 0.000000 0.730599 -0.682806
vn -0.205835 -0.978587 0.000000
vn -0.813339 0.581785 -0.002371
vn -0.016635 0.999801 -0.010992
vn 0.822491 0.568768 -0.003527
vn 0.998920 -0.046460 0.000000
vn 0.002068 0.395847 -0.918314
vn 0.000000 0.395832 -0.918323
vn 0.047881 0.729922 -0.681852
vn 0.000000 0.394371 -0.918951
vn 0.063076 -0.442593 0.894501
vn 0.038209 -0.391576 0.919352
vn 0.015442 0.741790 0.670455
vn 0.000000 -0.613434 0.789746
vn 0.000000 0.392931 -0.919568
vn -0.739704 -0.645923 0.188737
vn 0.665147 0.441909 -0.601910
vn -0.830392 -0.557180 0.000000
vn 0.963012 0.269459 0.000000
vn 0.961321 0.275431 0.000000
vn -0.813615 0.580990 -0.021938
vn -0.839025 -0.544013 0.009276
vn 0.960086 0.279675 -0.004177
vn 0.830372 0.556920 -0.017960
vn 0.068460 0.997647 -0.003576
vn -0.008097 0.999168 -0.039974
vn 0.539121 -0.357271 0.762697
vn 0.472379 -0.710242 0.521933
vn -0.474879 -0.200934 0.856805
vn 0.218257 -0.492487 0.842508
vn -0.551674 -0.362488 0.751172
vn 0.854877 0.264562 0.446310
vn -0.011844 -0.395901 0.918217
vn -0.619227 0.443103 0.648242
vn -0.009803 0.506449 0.862214
vn 0.627287 0.411438 0.661234
vn -0.741625 -0.490213 0.457913
vn -0.757486 -0.574217 -0.310628
vn -0.469045 0.366486 -0.803545
vn -0.485012 -0.808681 -0.332863
vn -0.741632 -0.496367 -0.451222
vn -0.865313 -0.121290 0.486335
vn -0.845454 -0.534047 0.001444
vn -0.640330 0.561287 -0.524342
vn -0.766918 0.641739 -0.002780
vn -0.671915 0.549525 0.496540
vn 0.000000 -0.499061 0.866567
vn 0.407594 -0.730007 0.548596
vn 0.000000 -0.499061 0.866567
vn -0.407594 -0.730007 0.548596
vn -0.089804 0.932660 0.349400
vn 0.089804 0.932660 0.349400
vn -0.408248 -0.408248 0.816497
vn 0.408248 -0.408248 0.816497
vn -0.577350 0.577350 0.577350
vn 0.577350 0.577350 0.577350
vn -0.577350 -0.577350 0.577350
vn 0.577350 -0.577350 0.577350
vn 0.576425 -0.256554 0.775831
vn -0.576425 -0.256554 0.775831
vn 0.356697 0.801424 0.480091
vn -0.356697 0.801424 0.480091
vn -1.000000 0.000000 0.000000
vn -0.894427 -0.447214 0.000000
vn 0.000000 0.000000 1.000000
vn 0.000000 -0.447214 0.894427
vn 0.999730 -0.023230 0.000000
vn 0.894427 -0.447214 0.000000
vn 0.999730 -0.023230 0.000000
vn 0.894427 -0.447214 0.000000
vn 0.669259 0.322791 -0.669252
vn 0.669259 0.322793 0.669251
vn 0.577350 -0.577350 0.577350
vn 0.577350 -0.577350 -0.577350
vn -0.669248 0.322814 -0.669252
vn -0.669248 0.322816 0.669251
vn -0.577350 -0.577350 0.577350
vn -0.577350 -0.577350 -0.577350
vn 0.669259 0.322791 -0.669252
vn 0.669259 0.322793 0.669251
vn -0.669248 0.322814 -0.669252
vn -0.669248 0.322816 0.669251
vn 0.577350 0.577350 -0.577350
vn 0.577350 0.577350 0.577350
vn -0.577350 0.577350 -0.577350
vn -0.577350 0.577350 0.577350
# num_vertex_normals: 126

vt 0.773602 0.789591
vt 0.775235 0.992292
vt 0.561566 0.992292
vt 0.561761 0.789591
vt 0.208391 0.076056
vt 0.208391 0.253092
vt 0.002622 0.253092
vt 0.002622 0.076056
vt 0.774021 0.789591
vt 0.774921 0.992292
vt 0.561599 0.992292
vt 0.561777 0.789591
vt -0.014962 1.000000
vt -0.014962 1.000000
vt -0.014962 1.000000
vt -0.014962 1.000000
vt 0.208391 0.253092
vt 0.208391 0.076056
vt 0.414983 0.076056
vt 0.414983 0.253092
vt 0.562184 0.789591
vt 0.562413 0.992292
vt 0.774820 0.992292
vt 0.774156 0.789591
vt 0.561728 0.789591
vt 0.561499 0.992292
vt 0.773836 0.992292
vt 0.775468 0.789591
vt 0.603909 0.133556
vt 0.673872 0.132103
vt 0.674215 0.252393
vt 0.604237 0.253844
vt 0.674215 0.252393
vt 0.674512 0.364534
vt 0.604548 0.365973
vt 0.604237 0.253844
vt 0.523713 0.651040
vt 0.592462 0.743900
vt 0.659898 0.649889
vt 0.537255 0.134912
vt 0.603909 0.133556
vt 0.604237 0.253844
vt 0.537578 0.255197
vt 0.604237 0.253844
vt 0.604548 0.365973
vt 0.537871 0.363630
vt 0.537578 0.255197
vt 0.444841 0.126145
vt 0.525478 0.134234
vt 0.523613 0.261723
vt 0.445719 0.261723
vt 0.523613 0.261723
vt 0.523613 0.354218
vt 0.445719 0.354218
vt 0.445719 0.261723
vt 0.525478 0.134234
vt 0.591651 0.134234
vt 0.597821 0.261723
vt 0.523613 0.261723
vt 0.597821 0.261723
vt 0.597821 0.354218
vt 0.523613 0.354218
vt 0.523613 0.261723
vt 0.482670 0.136009
vt 0.537255 0.134912
vt 0.537578 0.255197
vt 0.479872 0.263588
vt 0.537578 0.255197
vt 0.537871 0.363630
vt 0.462224 0.361434
vt 0.479872 0.263588
vt 0.591651 0.134234
vt 0.629645 0.134234
vt 0.664236 0.267585
vt 0.597821 0.261723
vt 0.664236 0.267585
vt 0.682016 0.354218
vt 0.597821 0.354218
vt 0.597821 0.261723
vt 0.424565 0.137169
vt 0.482670 0.136009
vt 0.479872 0.263588
vt 0.444188 0.264197
vt 0.479872 0.263588
vt 0.462224 0.361434
vt 0.444188 0.264197
vt 0.582147 0.141711
vt 0.435737 0.141711
vt 0.477059 0.255894
vt 0.543115 0.257025
vt 0.477059 0.255894
vt 0.507863 0.346526
vt 0.543115 0.257025
vt 0.667994 0.632061
vt 0.589966 0.743420
vt 0.511401 0.632227
vt 0.485399 0.872435
vt 0.485399 0.646261
vt 0.256399 0.646261
vt 0.256399 0.872435
vt 0.462368 0.872435
vt 0.531324 0.139769
vt 0.541752 0.140422
vt 0.536750 0.256887
vt 0.472885 0.265204
vt 0.541752 0.140422
vt 0.629085 0.140829
vt 0.634583 0.243912
vt 0.536750 0.256887
vt 0.634583 0.243912
vt 0.634740 0.345510
vt 0.536450 0.340307
vt 0.536750 0.256887
vt 0.536450 0.340307
vt 0.435025 0.338468
vt 0.472885 0.265204
vt 0.536750 0.256887
vt 0.674189 0.141711
vt 0.591950 0.141711
vt 0.592282 0.246741
vt 0.674189 0.229608
vt 0.591950 0.141711
vt 0.582147 0.141711
vt 0.543115 0.257025
vt 0.592282 0.246741
vt 0.543115 0.257025
vt 0.507863 0.346526
vt 0.591950 0.351353
vt 0.592282 0.246741
vt 0.591950 0.351353
vt 0.674189 0.361173
vt 0.674189 0.229608
vt 0.592282 0.246741
vt 0.604197 0.120815
vt 0.674182 0.119349
vt 0.673872 0.132103
vt 0.603909 0.133556
vt 0.681429 0.124396
vt 0.681821 0.244180
vt 0.678269 0.252387
vt 0.677803 0.132144
vt 0.537544 0.122175
vt 0.604197 0.120815
vt 0.603909 0.133556
vt 0.537255 0.134912
vt 0.445359 0.148519
vt 0.523253 0.148519
vt 0.525478 0.134234
vt 0.444841 0.126145
vt 0.440886 0.260806
vt 0.440886 0.148514
vt 0.440852 0.126140
vt 0.441246 0.261718
vt 0.523253 0.148519
vt 0.597461 0.148519
vt 0.591651 0.134234
vt 0.525478 0.134234
vt 0.482959 0.123272
vt 0.537544 0.122175
vt 0.537255 0.134912
vt 0.482670 0.136009
vt 0.424854 0.124431
vt 0.482959 0.123272
vt 0.482670 0.136009
vt 0.424565 0.137169
vt 0.324650 0.862470
vt 0.324650 0.840891
vt 0.305062 0.831821
vt 0.305062 0.851064
vt 0.592281 0.124072
vt 0.582478 0.124072
vt 0.582147 0.141711
vt 0.591950 0.141711
vt 0.649854 0.155499
vt 0.649689 0.233633
vt 0.646460 0.244285
vt 0.645126 0.148294
vt 0.324650 0.840891
vt 0.324650 0.659866
vt 0.305062 0.670399
vt 0.305062 0.831821
vt 0.684298 0.213949
vt 0.684298 0.126053
vt 0.683967 0.143692
vt 0.683967 0.231588
vt 0.681821 0.244180
vt 0.682603 0.355774
vt 0.678567 0.366632
vt 0.678269 0.252387
vt 0.440886 0.353300
vt 0.440886 0.260806
vt 0.441246 0.261718
vt 0.441246 0.354212
vt 0.649689 0.233633
vt 0.649420 0.335938
vt 0.646478 0.346567
vt 0.646460 0.244285
vt 0.684298 0.345515
vt 0.684298 0.213949
vt 0.683967 0.231588
vt 0.683967 0.363154
vt 0.322861 0.842896
vt 0.322861 0.798784
vt 0.305310 0.798986
vt 0.305310 0.843098
vt 0.331449 0.866919
vt 0.322861 0.842896
vt 0.305310 0.843098
vt 0.306104 0.857880
vt 0.322861 0.695674
vt 0.322861 0.651942
vt 0.305310 0.652143
vt 0.305310 0.695876
vt 0.674520 0.124072
vt 0.674189 0.141711
vt 0.683967 0.143692
vt 0.684298 0.126053
vt 0.322861 0.798784
vt 0.322861 0.747052
vt 0.305310 0.747254
vt 0.305310 0.798986
vt 0.322861 0.747052
vt 0.322861 0.695674
vt 0.305310 0.695876
vt 0.305310 0.747254
vt 0.634583 0.243912
vt 0.629085 0.140829
vt 0.645126 0.148294
vt 0.646460 0.244285
vt 0.634740 0.345510
vt 0.634583 0.243912
vt 0.646460 0.244285
vt 0.646478 0.346567
vt 0.674189 0.141711
vt 0.674189 0.229608
vt 0.683967 0.231588
vt 0.683967 0.143692
vt 0.674189 0.229608
vt 0.674189 0.361173
vt 0.683967 0.363154
vt 0.683967 0.231588
vt 0.321714 0.867803
vt 0.321714 0.808042
vt 0.304747 0.808039
vt 0.304747 0.867800
vt 0.673872 0.132103
vt 0.674182 0.119349
vt 0.681429 0.124396
vt 0.677803 0.132144
vt 0.321714 0.706758
vt 0.321714 0.644684
vt 0.304747 0.644681
vt 0.304747 0.706755
vt 0.445359 0.148519
vt 0.444841 0.126145
vt 0.440852 0.126140
vt 0.440886 0.148514
vt 0.321714 0.808042
vt 0.321714 0.757888
vt 0.304747 0.757885
vt 0.304747 0.808039
vt 0.321714 0.757888
vt 0.321714 0.706758
vt 0.304747 0.706755
vt 0.304747 0.757885
vt 0.674215 0.252393
vt 0.673872 0.132103
vt 0.677803 0.132144
vt 0.678269 0.252387
vt 0.674512 0.364534
vt 0.674215 0.252393
vt 0.678269 0.252387
vt 0.678567 0.366632
vt 0.444841 0.126145
vt 0.445719 0.261723
vt 0.441246 0.261718
vt 0.440852 0.126140
vt 0.445719 0.261723
vt 0.445719 0.354218
vt 0.441246 0.354212
vt 0.441246 0.261718
vt -0.014962 1.000000
vt -0.014962 1.000000
vt -0.014962 1.000000
vt -0.014962 1.000000
vt -0.014962 1.000000
vt -0.014962 1.000000
vt 0.597461 0.148519
vt 0.606218 0.148519
vt 0.632471 0.148519
vt 0.640069 0.148519
vt 0.629645 0.134234
vt 0.591651 0.134234
vt 0.159824 0.712129
vt 0.159824 0.611531
vt 0.171270 0.617720
vt 0.171270 0.705941
vt 0.086013 0.091852
vt 0.072697 0.091852
vt 0.072697 0.229765
vt 0.086013 0.229765
vt 0.088843 0.200916
vt 0.088843 0.095631
vt 0.071716 0.229765
vt 0.071716 0.091852
vt 0.087061 0.091852
vt 0.089891 0.095631
vt 0.089891 0.200916
vt 0.087061 0.229765
vt 0.201344 0.512530
vt 0.201344 0.723430
vt 0.088498 0.723430
vt 0.088498 0.512530
vt 0.219841 0.076416
vt 0.223468 0.107437
vt 0.164510 0.107437
vt 0.168137 0.076416
vt 0.158637 0.708164
vt 0.158637 0.619943
vt 0.179840 0.619943
vt 0.179840 0.708164
vt 0.185118 0.525010
vt 0.185118 0.716388
vt 0.163915 0.716388
vt 0.163915 0.525010
vt 0.160721 0.714870
vt 0.160721 0.523492
vt 0.181925 0.523492
vt 0.181925 0.714870
vt 0.179995 0.521974
vt 0.179995 0.610195
vt 0.158791 0.610195
vt 0.158791 0.521974
vt 0.153260 0.713647
vt 0.153260 0.613049
vt 0.179995 0.613049
vt 0.179995 0.713647
vt 0.159824 0.592633
vt 0.171270 0.592633
vt 0.171270 0.608677
vt 0.159824 0.608677
vt 0.171270 0.589779
vt 0.159824 0.589779
vt 0.159824 0.573736
vt 0.171270 0.573736
vt 0.181403 0.618425
vt 0.181403 0.706646
vt 0.154669 0.706646
vt 0.154669 0.618425
vt -0.014962 1.000000
vt -0.014962 1.000000
vt -0.014962 1.000000
vt -0.014962 1.000000
vt -0.014962 1.000000
vt 0.760964 0.784606
vt 0.559362 0.784606
vt 0.559362 0.996149
vt 0.760964 0.996149
vt 0.571810 0.784606
vt 0.776108 0.784606
vt 0.776108 0.996149
vt 0.571810 0.996149
vt 0.740251 0.560464
vt 0.591247 0.560464
vt 0.440250 0.553599
vt 0.523713 0.651040
vt 0.659898 0.649889
vt 0.009429 0.994171
vt 0.009429 0.771887
vt 0.241338 0.771887
vt 0.241338 0.994171
vt 0.243774 0.771887
vt 0.009694 0.771887
vt 0.009694 0.994171
vt 0.243774 0.994171
vt 0.444409 0.548984
vt 0.585378 0.557662
vt 0.734408 0.557662
vt 0.667994 0.632061
vt 0.511401 0.632227
vt 0.485399 0.646261
vt 0.485399 0.872435
vt 0.462368 0.872435
vt 0.368564 0.872435
vt 0.368564 0.646261
vt 0.368564 0.872435
vt 0.256399 0.872435
vt 0.256399 0.646261
vt 0.368564 0.646261
vt 0.674520 0.124072
vt 0.626774 0.124072
vt 0.592281 0.124072
vt 0.591950 0.141711
vt 0.674189 0.141711
vt -0.014962 1.000000
vt -0.014962 1.000000
vt -0.014962 1.000000
vt -0.014962 1.000000
vt -0.014962 1.000000
vt -0.014962 1.000000
vt 0.760964 0.996149
vt 0.570605 0.996149
vt 0.570605 0.784606
vt 0.760964 0.784606
vt 0.560567 0.996149
vt 0.776108 0.996149
vt 0.776108 0.784606
vt 0.560567 0.784606
vt -0.014962 1.000000
vt -0.014962 1.000000
vt -0.014962 1.000000
vt -0.014962 1.000000
vt -0.014962 1.000000
vt 0.582478 0.124072
vt 0.504731 0.124072
vt 0.436068 0.124072
vt 0.435737 0.141711
vt 0.582147 0.141711
vt 0.159983 0.645898
vt 0.159983 0.693397
vt 0.159983 0.550897
vt 0.159983 0.598398
vt 0.820759 0.474010
vt 0.985760 0.474010
vt 0.985760 0.226612
vt 0.820759 0.226612
vt 0.142249 0.646640
vt 0.142249 0.694140
vt 0.142249 0.551640
vt 0.142249 0.599140
vt 0.824122 0.226612
vt 0.989123 0.226612
vt 0.989123 0.474010
vt 0.824122 0.474010
vt 0.985760 0.226612
vt 0.985760 0.474010
vt 0.820760 0.474010
vt 0.820760 0.226612
vt 0.824123 0.226612
vt 0.824123 0.474010
vt 0.989122 0.474010
vt 0.989122 0.226612
vt 0.818984 0.256744
vt 0.983983 0.256744
vt 0.983984 0.326615
vt 0.818984 0.326615
vt 0.822346 0.256744
vt 0.987347 0.256744
vt 0.987346 0.326615
vt 0.822347 0.326615
vt 0.983983 0.256744
vt 0.818983 0.256744
vt 0.818983 0.326615
vt 0.983984 0.326615
vt 0.987346 0.256744
vt 0.822346 0.256744
vt 0.822347 0.326615
vt 0.987346 0.326615
vt 0.818984 0.326615
vt 0.983984 0.326615
vt 0.983984 0.464810
vt 0.818985 0.464810
vt 0.822347 0.326615
vt 0.987346 0.326615
vt 0.987346 0.464810
vt 0.822347 0.464810
vt 0.983984 0.326615
vt 0.818983 0.326615
vt 0.818982 0.464810
vt 0.983984 0.464810
vt 0.987346 0.326615
vt 0.822347 0.326615
vt 0.822347 0.464810
vt 0.987346 0.464810
# num_uvs: 474

g MEDHOUSE_6
s 1

usemtl texturesheet_1
f 4/1/4 1/2/1 2/3/2 3/4/3 
f 7/5/7 6/6/6 5/7/5 8/8/8 
f 3/9/3 2/10/2 9/11/9 10/12/10 
f 7/13/7 3/14/3 10/15/10 12/16/12 
f 6/17/6 7/18/7 12/19/12 11/20/11 
f 10/21/10 9/22/9 13/23/13 14/24/14 
f 14/25/14 13/26/13 17/27/17 18/28/18 
f 48/29/48 47/30/47 49/31/49 41/32/41 
f 49/33/49 65/34/65 26/35/26 41/36/41 
f 31/37/31 25/38/25 30/39/30 
f 50/40/50 48/41/48 41/42/41 40/43/40 
f 41/44/41 26/45/26 27/46/27 40/47/40 
f 52/48/52 51/49/51 32/50/32 53/51/53 
f 32/52/32 26/53/26 65/54/65 53/55/53 
f 51/56/51 54/57/54 33/58/33 32/59/32 
f 33/60/33 27/61/27 26/62/26 32/63/32 
f 55/64/55 50/65/50 40/66/40 39/67/39 
f 40/68/40 27/69/27 28/70/28 39/71/39 
f 54/72/54 56/73/56 34/74/34 33/75/33 
f 34/76/34 28/77/28 27/78/27 33/79/33 
f 57/80/57 55/81/55 39/82/39 38/83/38 
f 39/84/39 28/85/28 38/86/38 
f 59/87/59 57/88/57 38/89/38 37/90/37 
f 38/91/38 28/92/28 37/93/37 
f 36/94/36 29/95/29 35/96/35 
f 15/97/15 16/98/16 21/99/21 22/100/22 42/101/42 
f 56/102/56 58/103/58 43/104/43 34/105/34 
f 58/106/58 62/107/62 61/108/61 43/109/43 
f 61/110/61 66/111/66 44/112/44 43/113/43 
f 44/114/44 28/115/28 34/116/34 43/117/43 
f 63/118/63 60/119/60 45/120/45 64/121/64 
f 60/122/60 59/123/59 37/124/37 45/125/45 
f 37/126/37 28/127/28 44/128/44 45/129/45 
f 44/130/44 66/131/66 64/132/64 45/133/45 
f 2/134/2 1/135/1 47/136/47 48/137/48 
f 78/138/78 77/139/77 84/140/84 79/141/79 
f 9/142/9 2/143/2 48/144/48 50/145/50 
f 5/146/5 6/147/6 51/148/51 52/149/52 
f 81/150/81 80/151/80 82/152/82 86/153/86 
f 6/154/6 11/155/11 54/156/54 51/157/51 
f 13/158/13 9/159/9 50/160/50 55/161/55 
f 17/162/17 13/163/13 55/164/55 57/165/57 
f 15/166/15 42/167/42 58/168/58 56/169/56 
f 46/170/46 19/171/19 59/172/59 60/173/60 
f 68/174/68 67/175/67 74/176/74 69/177/69 
f 42/178/42 22/179/22 62/180/62 58/181/58 
f 71/182/71 70/183/70 72/184/72 76/185/76 
f 77/186/77 83/187/83 85/188/85 84/189/84 
f 83/190/83 81/191/81 86/192/86 85/193/85 
f 67/194/67 73/195/73 75/196/75 74/197/74 
f 73/198/73 71/199/71 76/200/76 75/201/75 
f 22/202/22 35/203/35 67/204/67 68/205/68 
f 62/206/62 22/207/22 68/208/68 69/209/69 
f 36/210/36 23/211/23 70/212/70 71/213/71 
f 23/214/23 63/215/63 72/216/72 70/217/70 
f 35/218/35 29/219/29 73/220/73 67/221/67 
f 29/222/29 36/223/36 71/224/71 73/225/73 
f 61/226/61 62/227/62 69/228/69 74/229/74 
f 66/230/66 61/231/61 74/232/74 75/233/75 
f 63/234/63 64/235/64 76/236/76 72/237/72 
f 64/238/64 66/239/66 75/240/75 76/241/76 
f 1/242/1 30/243/30 77/244/77 78/245/78 
f 47/246/47 1/247/1 78/248/78 79/249/79 
f 31/250/31 5/251/5 80/252/80 81/253/81 
f 5/254/5 52/255/52 82/256/82 80/257/80 
f 30/258/30 25/259/25 83/260/83 77/261/77 
f 25/262/25 31/263/31 81/264/81 83/265/83 
f 49/266/49 47/267/47 79/268/79 84/269/84 
f 65/270/65 49/271/49 84/272/84 85/273/85 
f 52/274/52 53/275/53 86/276/86 82/277/82 
f 53/278/53 65/279/65 85/280/85 86/281/86 
f 12/282/12 10/283/10 14/284/14 16/285/16 88/286/88 90/287/90 
f 11/288/11 89/289/89 87/290/87 15/291/15 56/292/56 54/293/54 
f 100/294/100 99/295/99 101/296/101 102/297/102 
f 88/298/88 16/299/16 15/300/15 87/301/87 93/302/93 91/303/91 
f 11/304/11 12/305/12 90/306/90 92/307/92 94/308/94 89/309/89 
f 95/310/95 97/311/97 98/312/98 96/313/96 
f 93/314/93 87/315/87 89/316/89 94/317/94 
f 92/318/92 91/319/91 95/320/95 96/321/96 
f 91/322/91 93/323/93 97/324/97 95/325/95 
f 94/326/94 92/327/92 96/328/96 98/329/98 
f 93/330/93 94/331/94 98/332/98 97/333/97 
f 90/334/90 88/335/88 99/336/99 100/337/100 
f 88/338/88 91/339/91 101/340/101 99/341/99 
f 92/342/92 90/343/90 100/344/100 102/345/102 
f 91/346/91 92/347/92 102/348/102 101/349/101 
f 3/350/3 7/351/7 8/352/8 104/353/104 4/354/4 
f 4/355/4 104/356/104 103/357/103 1/358/1 
f 104/359/104 8/360/8 5/361/5 103/362/103 
f 1/363/1 103/364/103 5/365/5 31/366/31 30/367/30 
f 22/368/22 21/369/21 106/370/106 105/371/105 
f 106/372/106 24/373/24 23/374/23 105/375/105 
f 22/376/22 105/377/105 23/378/23 36/379/36 35/380/35 
f 20/381/20 19/382/19 46/383/46 107/384/107 108/385/108 
f 107/386/107 23/387/23 24/388/24 108/389/108 
f 23/390/23 107/391/107 46/392/46 60/393/60 63/394/63 
f 16/395/16 20/396/20 108/397/108 24/398/24 106/399/106 21/400/21 
f 17/401/17 109/402/109 110/403/110 18/404/18 
f 109/405/109 19/406/19 20/407/20 110/408/110 
f 16/409/16 14/410/14 18/411/18 110/412/110 20/413/20 
f 19/414/19 109/415/109 17/416/17 57/417/57 59/418/59 
f 123/419/123 125/420/125 126/421/126 124/422/124 
f 112/423/112 116/424/116 117/425/117 113/426/113 
f 113/427/113 117/428/117 118/429/118 114/430/114 
f 114/431/114 118/432/118 115/433/115 111/434/111 
f 114/435/114 111/436/111 112/437/112 113/438/113 
f 117/439/117 116/440/116 115/441/115 118/442/118 
f 112/443/112 111/444/111 119/445/119 120/446/120 
f 111/447/111 115/448/115 121/449/121 119/450/119 
f 116/451/116 112/452/112 120/453/120 122/454/122 
f 115/455/115 116/456/116 122/457/122 121/458/121 
f 120/459/120 119/460/119 123/461/123 124/462/124 
f 119/463/119 121/464/121 125/465/125 123/466/123 
f 122/467/122 120/468/120 124/469/124 126/470/126 
f 121/471/121 122/472/122 126/473/126 125/474/125 
# num_faces: 115

g NoName
s 2

# num_faces: 0

